Coordinates
version=1
nRows=21
nColumns=33
inDegrees=yes

Units are S.I. units (second, meters, Newtons, ...)
Angles are in degrees.

endheader
time	ground_thorax_rot_x	ground_thorax_rot_y	ground_thorax_rot_z	ground_thorax_tx	ground_thorax_ty	ground_thorax_tz	clav_prot_r	clav_elev_r	scapula_abduction_r	scapula_elevation_r	scapula_upward_rot_r	scapula_winging_r	shoulder_elv_r	plane_of_elev_r	axial_rot_r	elbow_flexion_r	pro_sup_r	wrist_flex_r	wrist_dev_r	clav_prot_l	clav_elev_l	scapula_abduction_l	scapula_elevation_l	scapula_upward_rot_l	scapula_winging_l	shoulder_elv_l	plane_of_elev_l	axial_rot_l	elbow_flexion_l	pro_sup_l	wrist_flex_l	wrist_dev_l
      5.32000000	    -26.00033916	    -33.56669128	     44.15608625	    -31.61027948	    845.99812525	    -48.88355285	     26.34801313	    -45.00000000	     42.14052443	    -45.00000000	    -38.86910296	   3486.91909513	   -457.06056447	    146.16124185	   -179.99999979	   2517.97872497	     61.96727929	     33.56896443	     15.03942322	     -3.39211274	     33.47507131	    -29.69858674	    -45.00000000	    -45.00000000	   2250.29142864	  -7122.09419990	     27.47487616	     48.84014922	   2870.01501318	     40.83958064	     14.20310292	    -21.52111684
      5.33000000	    -25.79383699	    -33.58945856	     44.45036974	    -29.11040381	    845.30660567	    -48.72730069	     26.54215006	    -45.00000000	     41.87325882	    -45.00000000	    -40.12818191	   3487.60554445	   -457.02680014	    146.39919402	   -179.99999979	   2518.49332140	     61.71049369	     33.62052558	     15.08608360	     -3.23226224	     33.46675576	    -29.73441731	    -45.00000000	    -45.00000000	   2250.16981293	  -7122.10599068	     27.61318579	     49.19307661	   2869.98795329	     40.73063528	     14.30285213	    -21.32081210
      5.34000000	    -25.52599970	    -33.67366198	     44.82185057	    -26.55596045	    844.59879469	    -48.56814341	     26.77272863	    -45.00000000	     41.61364634	    -45.00000000	    -41.54042023	   3488.28473882	   -456.98643389	    146.60777958	   -179.99999979	   2519.04371984	     61.45070158	     33.66941577	     15.13276820	     -3.16505430	     33.43807107	    -29.72031205	    -45.00000000	    -45.00000000	   2250.04248848	  -7122.12510829	     27.70420805	     49.59429649	   2869.97536265	     40.65941531	     14.39861960	    -21.12653768
      5.35000000	    -25.54094037	    -33.48803969	     44.74794700	    -23.94917666	    843.85647978	    -48.40247686	     26.74208209	    -45.00000000	     41.06308755	    -45.00000000	    -43.53235728	   3489.67734972	   -456.70721250	    147.30917232	   -179.99999979	   2519.97552537	     61.11755091	     33.68603870	     15.06172057	     -2.61023337	     33.45442133	    -30.09348275	    -45.00000000	    -45.00000000	   2249.87936312	  -7122.25458754	     27.71491387	     50.08602052	   2869.95514211	     40.59313866	     14.49130552	    -20.87914994
      5.36000000	    -25.20711676	    -33.62560566	     45.13682228	    -21.27808681	    843.06030420	    -48.20783422	     27.11277575	    -45.00000000	     40.88696776	    -45.00000000	    -45.00000000	   3490.34839301	   -456.60686349	    147.46275332	   -179.99999979	   2520.51363863	     60.89184690	     33.70662025	     15.12292685	     -2.67467933	     33.39847046	    -29.98778195	    -45.00000000	    -45.00000000	   2249.71672083	  -7122.24805507	     27.79556964	     50.56860886	   2869.88090027	     40.56767025	     14.58025731	    -20.65244952
      5.37000000	    -24.96464015	    -33.72318495	     45.57923037	    -18.54864295	    842.19298611	    -47.98900131	     27.07737075	    -45.00000000	     40.82390014	    -45.00000000	    -45.00000000	   3490.58171733	   -456.68795539	    147.57704882	   -179.99999979	   2520.63303092	     60.60709249	     33.61732672	     15.33859781	     -2.56786491	     33.35863675	    -29.99500496	    -45.00000000	    -45.00000000	   2249.59835918	  -7122.22476110	     27.85840749	     51.06422957	   2869.92700050	     40.52090388	     14.63815614	    -20.42336961
      5.38000000	    -24.50755795	    -34.02242582	     46.21903215	    -15.77425267	    841.24393852	    -47.75650335	     27.24068789	    -45.00000000	     40.93395069	    -45.00000000	    -45.00000000	   3490.58855067	   -456.80482873	    147.43664894	   -179.99999979	   2520.63725820	     60.23873820	     33.49616615	     15.62140868	     -2.69203144	     33.31688715	    -29.83724941	    -45.00000000	    -45.00000000	   2249.52011461	  -7122.16076796	     27.91125931	     51.32210760	   2869.80700493	     40.51453755	     14.70997283	    -20.15324673
      5.39000000	    -23.63575999	    -34.57719339	     47.51008239	    -12.96681492	    840.20158116	    -47.53854572	     27.55208282	    -45.00000000	     41.33062940	    -45.00000000	    -45.00000000	   3490.33155424	   -456.96828609	    147.24999503	   -179.99999979	   2520.37089610	     59.98595472	     33.40796472	     16.06955945	     -3.42062004	     33.11096654	    -29.63411397	    -45.00000000	    -45.00000000	   2249.41663003	  -7122.02074237	     27.59360613	     51.78657089	   2869.72567045	     40.52516968	     14.85544619	    -19.95653232
      5.40000000	    -23.48618227	    -34.61325180	     47.78768785	    -10.12611818	    839.05798215	    -47.33720150	     27.37426265	    -45.00000000	     41.07766187	    -45.00000000	    -45.00000000	   3490.65235910	   -457.00609694	    147.29758294	   -179.99999979	   2520.44379432	     59.51456604	     33.22246646	     16.36738588	     -3.03019407	     33.17848462	    -29.62248925	    -45.00000000	    -45.00000000	   2249.36362677	  -7122.16886187	     27.83870564	     51.79462234	   2869.75876034	     40.53308300	     14.90944424	    -19.73134506
      5.41000000	    -23.30409661	    -34.66677065	     48.11790172	     -7.25452219	    837.80605439	    -47.16489802	     27.30037206	    -45.00000000	     40.97846946	    -45.00000000	    -45.00000000	   3490.88248628	   -457.13025147	    147.38383543	   -179.99999979	   2520.54422573	     58.92087878	     32.95728170	     16.61417669	     -2.76713819	     33.20583215	    -29.63630316	    -45.00000000	    -45.00000000	   2249.28662252	  -7122.18715032	     27.99608455	     52.13712860	   2869.67346750	     40.56632767	     14.90487363	    -19.43747053
      5.42000000	    -22.45556024	    -35.17465946	     49.39096521	     -4.34204169	    836.44175130	    -47.00990716	     27.48061946	    -45.00000000	     41.30919471	    -45.00000000	    -45.00000000	   3490.63969766	   -457.35948694	    147.21500980	   -179.99999979	   2520.22008376	     58.57263829	     32.77871872	     17.09988105	     -3.28047288	     33.05461089	    -29.45081522	    -45.00000000	    -45.00000000	   2249.21236897	  -7122.09471341	     27.72982004	     52.51104650	   2869.55828227	     40.63623584	     15.00884373	    -19.21022659
      5.43000000	    -22.21295606	    -35.27534299	     49.86235543	     -1.38173728	    834.96439722	    -46.85829649	     27.36846845	    -45.00000000	     41.09146166	    -45.00000000	    -45.00000000	   3490.85187581	   -457.44559495	    147.26620484	   -179.99999979	   2520.24437987	     58.02780519	     32.51573088	     17.42511350	     -3.00369856	     33.08776675	    -29.47101675	    -45.00000000	    -45.00000000	   2249.18946702	  -7122.16769796	     27.87809840	     52.47157975	   2869.49187888	     40.72504337	     15.05929203	    -18.96176516
      5.44000000	    -21.85887146	    -35.43802081	     50.47452102	      1.64575215	    833.37307468	    -46.68319081	     27.33842899	    -45.00000000	     40.95713955	    -45.00000000	    -45.00000000	   3490.91469727	   -457.61358216	    147.20951760	   -179.99999979	   2520.13918967	     57.45290505	     32.18045315	     17.73943977	     -2.88016436	     33.11741962	    -29.40411484	    -45.00000000	    -45.00000000	   2249.12691439	  -7122.20440980	     27.98346840	     52.62243972	   2869.46807869	     40.80448076	     15.02089447	    -18.69609461
      5.45000000	    -20.92318649	    -35.99293134	     51.89523949	      4.72863891	    831.67680111	    -46.48699839	     27.29175052	    -45.00000000	     41.27703811	    -45.00000000	    -45.00000000	   3490.61875749	   -457.91410277	    147.06868544	   -179.99999979	   2519.77859884	     57.09028832	     31.87650699	     18.20835345	     -3.23771190	     32.96294569	    -29.16908861	    -45.00000000	    -45.00000000	   2249.06538604	  -7122.12461467	     27.67931858	     52.67992847	   2869.40169655	     40.89997078	     15.09129559	    -18.43542816
      5.46000000	    -20.47985266	    -36.23326170	     52.73654912	      7.86137258	    829.88207253	    -46.28005713	     27.17919428	    -45.00000000	     41.14390746	    -45.00000000	    -45.00000000	   3490.67031742	   -458.09331687	    147.10483056	   -179.99999979	   2519.66211028	     56.57645901	     31.53818129	     18.54294395	     -3.09411480	     32.99907057	    -29.19872131	    -45.00000000	    -45.00000000	   2249.09464586	  -7122.29432483	     27.70685653	     52.25391237	   2869.40232024	     40.98878610	     15.10082334	    -18.20133500
      5.47000000	    -19.88652017	    -36.58352414	     53.71718828	     11.02743668	    827.99983256	    -46.07482686	     27.12503183	    -45.00000000	     41.07563848	    -45.00000000	    -44.94340952	   3490.47215772	   -458.37896249	    146.90315604	   -179.99999979	   2519.32965998	     56.08636111	     31.16605513	     18.91770874	     -3.12682783	     33.00255367	    -29.02750927	    -45.00000000	    -45.00000000	   2249.12122790	  -7122.34544177	     27.72953806	     52.01945357	   2869.41763563	     41.06346887	     15.07551147	    -17.97852158
      5.48000000	    -19.13060320	    -36.96509637	     54.96750436	     14.23015917	    826.03177241	    -45.87768432	     26.88441028	    -45.00000000	     41.20357020	    -45.00000000	    -44.43454112	   3490.16731927	   -458.63694955	    146.85203954	   -179.99999979	   2518.88119786	     55.70294887	     30.61632974	     19.25763173	     -3.13400969	     32.92077932	    -28.93009678	    -45.00000000	    -45.00000000	   2249.01986004	  -7122.36710474	     27.50810214	     51.61798610	   2869.31985281	     41.17721076	     15.04843529	    -17.63471745
      5.49000000	    -18.45317086	    -37.37264583	     56.10154108	     17.46178805	    823.97805665	    -45.70703481	     26.68440219	    -45.00000000	     41.38169690	    -45.00000000	    -42.76632005	   3489.43047281	   -459.11149975	    146.51354401	   -179.99999979	   2518.02561965	     55.31517682	     29.98060989	     19.66827377	     -3.25032220	     32.94878717	    -28.78383744	    -45.00000000	    -45.00000000	   2249.08507444	  -7122.46097434	     27.41923459	     51.20518675	   2869.37456991	     41.24148407	     14.96324706	    -17.40887678
      5.50000000	    -18.55824829	    -37.37659382	     56.12326309	     20.72345855	    821.85943032	    -45.54032922	     25.84812478	    -45.00000000	     42.37440879	    -45.00000000	    -35.87438745	   3487.08960994	   -459.95224879	    145.71928823	   -179.99999979	   2515.88486653	     54.60331533	     28.52528809	     20.28313454	     -2.81865497	     32.96636258	    -28.96131945	    -45.00000000	    -45.00000000	   2248.93395966	  -7122.53987128	     27.47113510	     51.61653286	   2869.34773872	     41.33549907	     14.84255736	    -17.12657221
      5.51000000	    -17.33278715	    -38.05236606	     58.03005279	     24.01304960	    819.63943204	    -45.43858900	     25.54774704	    -45.00000000	     42.92947209	    -45.00000000	    -34.27695835	   3485.36981489	   -460.65444043	    144.76724470	   -179.99999979	   2514.75955343	     54.46234873	     27.90478017	     20.61685289	     -3.36245620	     33.05699167	    -28.43862985	    -45.00000000	    -45.00000000	   2249.27904182	  -7122.65330630	     27.60559529	     50.46686586	   2869.30315259	     41.42113727	     14.89161807	    -17.06603306
      5.52000000	    -16.71053766	    -38.38153865	     59.07336087	     27.31462306	    817.38545430	    -45.30100188	     25.22643573	    -45.00000000	     43.21101711	    -45.00000000	    -32.44584724	   3484.23864962	   -461.13342557	    144.23649512	   -179.99999979	   2513.85494797	     54.19997946	     27.00693387	     20.79336227	     -3.42801968	     33.05522125	    -28.29259219	    -45.00000000	    -45.00000000	   2249.26339589	  -7122.74481468	     27.52114038	     49.93998574	   2869.29394928	     41.53215639	     14.80727322	    -16.83686026
